# xmcd
#
# Track frame offsets:
#	150
#	6237
#	42754
#	99625
#	150597
#	168823
#	219244
#
# Disc length: 4236 seconds
#
# Revision: 1
# Processed by: cddbd v1.5.2PL0 Copyright (c) Steve Scherf et al.
# Submitted via: audiograbber 1.83.01
#
DISCID=49108a07
DTITLE=Grateful Dead - 78-04-11 Fox Theatre, Atlanta GA
DYEAR=1900
DGENRE=
TTITLE0=Tuning
TTITLE1=Samson and Delilah
TTITLE2=Scarlet Begonias
TTITLE3=Fire On The Mountain
TTITLE4=Sunrise
TTITLE5=Terrapin Station
TTITLE6=Drums
EXTD=
EXTT0=
EXTT1=
EXTT2=
EXTT3=
EXTT4=
EXTT5=
EXTT6=
PLAYORDER=
